/* XPM */
static char * wolf_down_xpm[] = {
"64 64 7 1",
" 	c #70C8A0",
".	c #4A4A5A",
"+	c #94C5EE",
"@	c #6283CD",
"#	c #000000",
"$	c #FFFFFF",
"%	c #39394A",
"                           ..........                           ",
"                           ..........                           ",
"                           ..........                           ",
"                           ..........                           ",
"                           ..........                           ",
"                     ......++++++++++......                     ",
"                     ......++++++++++......                     ",
"                     ......++++++++++......                     ",
"                     ......++++++++++......                     ",
"     ...........     ......@@@@@@@@@@......     ...........     ",
"     ...........     ......@@@@@@@@@@......     ...........     ",
"     ...........     ......@@@@@@@@@@......     ...........     ",
"     ...........     ......@@@@@@@@@@......     ...........     ",
"     ...........     ......@@@@@@@@@@......     ...........     ",
"     ......+++++.....++++++++++++++++++++++.....+++++......     ",
"     ......+++++.....++++++++++++++++++++++.....+++++......     ",
"     ......+++++.....++++++++++++++++++++++.....+++++......     ",
"     ......+++++.....++++++++++++++++++++++.....+++++......     ",
".....@@@@@@@@@@@+++++......++++++++++......+++++@@@@@@@@@@@.....",
".....@@@@@@@@@@@+++++......++++++++++......+++++@@@@@@@@@@@.....",
".....@@@@@@@@@@@+++++......++++++++++......+++++@@@@@@@@@@@.....",
".....@@@@@@@@@@@+++++......++++++++++......+++++@@@@@@@@@@@.....",
".....@@@@@@@@@@@+++++......++++++++++......+++++@@@@@@@@@@@.....",
"#####@@@@@@@@@@@+++++......@@@@@@@@@@......+++++@@@@@@@@@@@#####",
"#####@@@@@@@@@@@+++++......@@@@@@@@@@......+++++@@@@@@@@@@@#####",
"#####@@@@@@@@@@@+++++......@@@@@@@@@@......+++++@@@@@@@@@@@#####",
"#####@@@@@@@@@@@+++++......@@@@@@@@@@......+++++@@@@@@@@@@@#####",
"#####......@@@@@+++++@@@@@@++++++++++@@@@@@+++++@@@@@......#####",
"#####......@@@@@+++++@@@@@@++++++++++@@@@@@+++++@@@@@......#####",
"#####......@@@@@+++++@@@@@@++++++++++@@@@@@+++++@@@@@......#####",
"#####......@@@@@+++++@@@@@@++++++++++@@@@@@+++++@@@@@......#####",
"#####......@@@@@+++++@@@@@@++++++++++@@@@@@+++++@@@@@......#####",
"     ###########+++++++++++@@@@@@@@@@+++++++++++###########     ",
"     ###########+++++++++++@@@@@@@@@@+++++++++++###########     ",
"     ###########+++++++++++@@@@@@@@@@+++++++++++###########     ",
"     ###########+++++++++++@@@@@@@@@@+++++++++++###########     ",
"     ###########+++++++++++@@@@@@@@@@+++++++++++###########     ",
"     ......+++++$$$$$++++++++++++++++++++++$$$$$+++++......     ",
"     ......+++++$$$$$++++++++++++++++++++++$$$$$+++++......     ",
"     ......+++++$$$$$++++++++++++++++++++++$$$$$+++++......     ",
"     ......+++++$$$$$++++++++++++++++++++++$$$$$+++++......     ",
".....++++++@@@@@$$$$$######++++++++++######$$$$$@@@@@++++++.....",
".....++++++@@@@@$$$$$######++++++++++######$$$$$@@@@@++++++.....",
".....++++++@@@@@$$$$$######++++++++++######$$$$$@@@@@++++++.....",
".....++++++@@@@@$$$$$######++++++++++######$$$$$@@@@@++++++.....",
".....++++++@@@@@$$$$$######++++++++++######$$$$$@@@@@++++++.....",
"     %%%%%%%%%%%++++++++++++++++++++++++++++++++%%%%%%%%%%%     ",
"     %%%%%%%%%%%++++++++++++++++++++++++++++++++%%%%%%%%%%%     ",
"     %%%%%%%%%%%++++++++++++++++++++++++++++++++%%%%%%%%%%%     ",
"     %%%%%%%%%%%++++++++++++++++++++++++++++++++%%%%%%%%%%%     ",
"     ......@@@@@%%%%%%%%%%%$$$$$$$$$$%%%%%%%%%%%@@@@@......     ",
"     ......@@@@@%%%%%%%%%%%$$$$$$$$$$%%%%%%%%%%%@@@@@......     ",
"     ......@@@@@%%%%%%%%%%%$$$$$$$$$$%%%%%%%%%%%@@@@@......     ",
"     ......@@@@@%%%%%%%%%%%$$$$$$$$$$%%%%%%%%%%%@@@@@......     ",
"     ......@@@@@%%%%%%%%%%%$$$$$$$$$$%%%%%%%%%%%@@@@@......     ",
"           %%%%%$$$$$++++++%%%%%%%%%%++++++$$$$$%%%%%           ",
"           %%%%%$$$$$++++++%%%%%%%%%%++++++$$$$$%%%%%           ",
"           %%%%%$$$$$++++++%%%%%%%%%%++++++$$$$$%%%%%           ",
"           %%%%%$$$$$++++++%%%%%%%%%%++++++$$$$$%%%%%           ",
"                ###########          ###########                ",
"                ###########          ###########                ",
"                ###########          ###########                ",
"                ###########          ###########                ",
"                ###########          ###########                "};
