/* XPM */
static char * fire_ball_right_xpm[] = {
"32 32 422 2",
"  	c #70C8A0",
". 	c #71C8A0",
"+ 	c #71C69F",
"@ 	c #79BE98",
"# 	c #88BD97",
"$ 	c #87BE98",
"% 	c #75C69E",
"& 	c #72C7A0",
"* 	c #77C69E",
"= 	c #89BE98",
"- 	c #76C69E",
"; 	c #77BC96",
"> 	c #9D8166",
", 	c #D37059",
"' 	c #D1775E",
") 	c #98B490",
"! 	c #8CBD96",
"~ 	c #88C098",
"{ 	c #72C8A0",
"] 	c #8CBC97",
"^ 	c #C69072",
"/ 	c #99B590",
"( 	c #72C59E",
"_ 	c #7DBA94",
": 	c #94AB89",
"< 	c #B06A54",
"[ 	c #D67058",
"} 	c #DD7458",
"| 	c #DA855E",
"1 	c #9CB58F",
"2 	c #8EBE96",
"3 	c #8ABF97",
"4 	c #72C79F",
"5 	c #77C59E",
"6 	c #9FB18D",
"7 	c #D28166",
"8 	c #88BE98",
"9 	c #71C79F",
"0 	c #73C59D",
"a 	c #7DBA95",
"b 	c #90B994",
"c 	c #A6AE8A",
"d 	c #DF7055",
"e 	c #E07155",
"f 	c #E77649",
"g 	c #DC885A",
"h 	c #9EB78E",
"i 	c #90BD95",
"j 	c #8BBF96",
"k 	c #8FBA95",
"l 	c #D08368",
"m 	c #9CB38F",
"n 	c #78C59E",
"o 	c #8FBB95",
"p 	c #A4AF8B",
"q 	c #E17652",
"r 	c #E97644",
"s 	c #E97844",
"t 	c #EA7944",
"u 	c #DF8A58",
"v 	c #9FB78E",
"w 	c #8DC196",
"x 	c #76C79E",
"y 	c #72C89F",
"z 	c #9EB28E",
"A 	c #D28066",
"B 	c #88BE97",
"C 	c #8FBC95",
"D 	c #A5B38B",
"E 	c #E47F4F",
"F 	c #F56921",
"G 	c #F57F24",
"H 	c #EC8140",
"I 	c #DFA458",
"J 	c #A0C18D",
"K 	c #8EC396",
"L 	c #77C89E",
"M 	c #74C79F",
"N 	c #8EBB95",
"O 	c #9DB28F",
"P 	c #8CBC96",
"Q 	c #95B892",
"R 	c #B6A480",
"S 	c #F05D35",
"T 	c #F86414",
"U 	c #F77417",
"V 	c #F5AC28",
"W 	c #ECBA42",
"X 	c #E0AF57",
"Y 	c #A1CA8D",
"Z 	c #8FC895",
"` 	c #7DC59C",
" .	c #9DB28E",
"..	c #D37F65",
"+.	c #89BD98",
"@.	c #8BBD97",
"#.	c #A1B08C",
"$.	c #E07054",
"%.	c #EA5F42",
"&.	c #ED5C3B",
"*.	c #F64819",
"=.	c #F85E10",
"-.	c #F86A12",
";.	c #F89019",
">.	c #F7C124",
",.	c #F5C732",
"'.	c #EDE657",
").	c #E0D15C",
"!.	c #A0C78F",
"~.	c #92B992",
"{.	c #D37058",
"].	c #9FB28D",
"^.	c #71C69E",
"/.	c #75BE98",
"(.	c #7ABC97",
"_.	c #8ABB96",
":.	c #A0B18D",
"<.	c #E06C54",
"[.	c #EB573F",
"}.	c #F5421D",
"|.	c #F74312",
"1.	c #F75913",
"2.	c #F85F11",
"3.	c #F87615",
"4.	c #F89122",
"5.	c #F8C42A",
"6.	c #F8E630",
"7.	c #F8D847",
"8.	c #F7F27D",
"9.	c #F5ED5D",
"0.	c #E0D06C",
"a.	c #94BD8F",
"b.	c #AC7659",
"c.	c #D58459",
"d.	c #89BF97",
"e.	c #70C7A0",
"f.	c #75BE97",
"g.	c #8B8368",
"h.	c #9D745C",
"i.	c #D36F58",
"j.	c #E15743",
"k.	c #F43E1F",
"l.	c #F75316",
"m.	c #F85A10",
"n.	c #F85B0F",
"o.	c #F86010",
"p.	c #F86F13",
"q.	c #F8B126",
"r.	c #F8DE43",
"s.	c #F8EF4A",
"t.	c #F8F64C",
"u.	c #F8F353",
"v.	c #F8F773",
"w.	c #F7F796",
"x.	c #EBEEA7",
"y.	c #A4D3A1",
"z.	c #98B68E",
"A.	c #DB875A",
"B.	c #8DBE96",
"C.	c #77BB95",
"D.	c #7CB894",
"E.	c #92AE8B",
"F.	c #B26751",
"G.	c #E4543F",
"H.	c #EC5E3B",
"I.	c #F65C1E",
"J.	c #F75C14",
"K.	c #F85C10",
"L.	c #F85A0F",
"M.	c #F8931B",
"N.	c #F8C22E",
"O.	c #F8EC48",
"P.	c #F8F750",
"Q.	c #F8F861",
"R.	c #F8F897",
"S.	c #F8F8BA",
"T.	c #F5F7DF",
"U.	c #E1EDBA",
"V.	c #A2C499",
"W.	c #D48358",
"X.	c #A0B38B",
"Y.	c #70C79F",
"Z.	c #73C59E",
"`.	c #7CBB95",
" +	c #8FB993",
".+	c #A3B08B",
"++	c #E16E52",
"@+	c #EC603D",
"#+	c #F65B1E",
"$+	c #F88619",
"%+	c #F8C931",
"&+	c #F8F250",
"*+	c #F8F86E",
"=+	c #F8F8AA",
"-+	c #F8F8E7",
";+	c #F7F8F5",
">+	c #ECF2E8",
",+	c #ABCAB2",
"'+	c #B2674E",
")+	c #D78655",
"!+	c #71C7A0",
"~+	c #8EBB96",
"{+	c #A2B18C",
"]+	c #E36C50",
"^+	c #F5451C",
"/+	c #F8580F",
"(+	c #F87614",
"_+	c #F8C12C",
":+	c #F8F15C",
"<+	c #F8F896",
"[+	c #F8F8BC",
"}+	c #F8F8EF",
"|+	c #F8F8F7",
"1+	c #F6F7F5",
"2+	c #E5E3E0",
"3+	c #B87264",
"4+	c #DF9048",
"5+	c #79C59E",
"6+	c #A2AF8B",
"7+	c #ED503B",
"8+	c #F7380C",
"9+	c #F87113",
"0+	c #F8C02C",
"a+	c #F8F15F",
"b+	c #F8F8A7",
"c+	c #F8F8F6",
"d+	c #F8F8F8",
"e+	c #F7F7F7",
"f+	c #EDE8E7",
"g+	c #BA7568",
"h+	c #DF9248",
"i+	c #8EC195",
"j+	c #78C59D",
"k+	c #A2B08C",
"l+	c #EC513C",
"m+	c #F7400F",
"n+	c #F87213",
"o+	c #F8F05E",
"p+	c #F8F8A6",
"q+	c #F8F8E5",
"r+	c #BA7569",
"s+	c #DF9247",
"t+	c #A0B28D",
"u+	c #E26A51",
"v+	c #F5461D",
"w+	c #F88419",
"x+	c #F8C832",
"y+	c #F8F15B",
"z+	c #F8F894",
"A+	c #F8F8B8",
"B+	c #F8F8EE",
"C+	c #F5F6F5",
"D+	c #E1E2DE",
"E+	c #B77365",
"F+	c #DF8D47",
"G+	c #8EC095",
"H+	c #76BE98",
"I+	c #7BBC96",
"J+	c #8BBB95",
"K+	c #9FB38E",
"L+	c #DF7456",
"M+	c #EB5F3F",
"N+	c #F54B1E",
"O+	c #F86B13",
"P+	c #F88218",
"Q+	c #F8BF2E",
"R+	c #F8EB48",
"S+	c #F8F752",
"T+	c #F8F86B",
"U+	c #F8F8E4",
"V+	c #F7F8F3",
"W+	c #ECF2E6",
"X+	c #A7C9AF",
"Y+	c #B36B50",
"Z+	c #D3885A",
"`+	c #7EB38F",
" @	c #9E7058",
".@	c #AF5945",
"+@	c #E05843",
"@@	c #EB5A3F",
"#@	c #F5481F",
"$@	c #F75914",
"%@	c #F86B12",
"&@	c #F8A31B",
"*@	c #F8B726",
"=@	c #F8DE42",
"-@	c #F8F85E",
";@	c #F8F891",
">@	c #F8F8B4",
",@	c #F5F7DC",
"'@	c #DFEDB7",
")@	c #A1C699",
"!@	c #D6865A",
"~@	c #9CB68E",
"{@	c #75BF99",
"]@	c #8A856A",
"^@	c #9C7058",
"/@	c #D45743",
"(@	c #E14E3B",
"_@	c #F3371F",
":@	c #F73914",
"<@	c #F75213",
"[@	c #F75C13",
"}@	c #F86211",
"|@	c #F87613",
"1@	c #F88F1A",
"2@	c #F8A124",
"3@	c #F8EA46",
"4@	c #F8F64B",
"5@	c #F8F858",
"6@	c #F7F78E",
"7@	c #ECEDA1",
"8@	c #A2D29F",
"9@	c #96B48C",
"0@	c #DB8659",
"a@	c #90BC94",
"b@	c #77BB96",
"c@	c #7CB994",
"d@	c #8EB894",
"e@	c #A1AF8C",
"f@	c #E06B54",
"g@	c #EB5440",
"h@	c #EB583F",
"i@	c #ED5F3C",
"j@	c #F55D20",
"k@	c #F85E11",
"l@	c #F86410",
"m@	c #F88217",
"n@	c #F8C127",
"o@	c #F8EA2E",
"p@	c #F7F531",
"q@	c #F5EC49",
"r@	c #E0D068",
"s@	c #96BE8E",
"t@	c #AD7357",
"u@	c #D2855B",
"v@	c #8CBE96",
"w@	c #8DBC96",
"x@	c #91BA94",
"y@	c #E17353",
"z@	c #F5461E",
"A@	c #F8480D",
"B@	c #F85F10",
"C@	c #F87214",
"D@	c #F79F1E",
"E@	c #F5C42B",
"F@	c #EBE549",
"G@	c #DFD05B",
"H@	c #9EC78F",
"I@	c #8EBC94",
"J@	c #D47259",
"K@	c #9DB38D",
"L@	c #73C79F",
"M@	c #7DC49C",
"N@	c #AEAB85",
"O@	c #EC633C",
"P@	c #F76B16",
"Q@	c #F77818",
"R@	c #F58F24",
"S@	c #EBB244",
"T@	c #DFAD58",
"U@	c #A1C78E",
"V@	c #8AC898",
"W@	c #78C59C",
"X@	c #8CB28E",
"Y@	c #CE8368",
"Z@	c #8ABE97",
"`@	c #9EB68E",
" #	c #E08455",
".#	c #F46D25",
"+#	c #F5A126",
"@#	c #ECB243",
"##	c #E0A656",
"$#	c #A2C08D",
"%#	c #8BC397",
"&#	c #77C79E",
"*#	c #7BBE97",
"=#	c #9E8066",
"-#	c #8DB28E",
";#	c #76C59E",
">#	c #72C69E",
",#	c #7ABD97",
"'#	c #99B38F",
")#	c #DC7859",
"!#	c #E87245",
"~#	c #EA7444",
"{#	c #E96A43",
"]#	c #E18153",
"^#	c #A3BB8C",
"/#	c #9AB38F",
"(#	c #C88368",
"_#	c #8BBC96",
":#	c #8FB390",
"<#	c #A9745C",
"[#	c #D56C55",
"}#	c #E75C46",
"|#	c #E16D52",
"1#	c #A4B18B",
"2#	c #90BB95",
"3#	c #9EB28D",
"4#	c #86BF99",
"5#	c #9AB490",
"6#	c #D9775D",
"7#	c #DD6F58",
"8#	c #DB7058",
"9#	c #D66B54",
"0#	c #A2AD8A",
"a#	c #78C69E",
"b#	c #83C09A",
"c#	c #CC886D",
"d#	c #DA745C",
"e#	c #DD7059",
"f#	c #E06A53",
"g#	c #A7AC89",
"h#	c #91B994",
"i#	c #8DBB95",
"j#	c #C49274",
"k#	c #9BB390",
"l#	c #93B993",
"m#	c #92B994",
"n#	c #79C59D",
"o#	c #83C099",
"                                                                ",
"              . .                             .                 ",
"          + @ # $ % & .                     * = -               ",
"          ; > , ' ) ! ~ % { .             . ] ^ / -             ",
"          ( _ : < [ } | 1 2 3 - 4 .         5 6 7 8 .           ",
"            9 0 a b c d e f g h i j - {     4 k l m -           ",
"                9 4 n o p q r s t u v w x y . 5 z A B .         ",
"                      4 n C D E F G H I J K L M N l O 5         ",
"                      & 5 P Q R S T U V W X Y Z `  ...+..       ",
"                  & 5 @.#.$.%.&.*.=.-.;.>.,.'.).!.~.{.].*       ",
"            ^./.(._.:.<.[.}.|.1.2.3.4.5.6.7.8.9.0.a.b.c.d..     ",
"          e.f.g.h.i.j.k.l.m.n.o.p.q.r.s.t.u.v.w.x.y.z.A.B.{     ",
"            ^.C.D.E.F.G.H.I.J.K.L.M.N.O.P.Q.R.S.T.U.V.W.X.*     ",
"              Y.9 Z.`. +.+++@+#+m.-.$+%+&+*+=+-+;+>+,+'+)+3 .   ",
"                    !+4 5 ~+{+]+^+/+(+_+:+<+[+}+|+1+2+3+4+w {   ",
"                          & 5+6+7+8+9+0+a+b+-+c+d+e+f+g+h+i+{   ",
"                          & j+k+l+m+n+0+o+p+q+c+d+e+f+r+s+i+y   ",
"                      9 - @.t+u+v+=.w+x+y+z+A+B+|+C+D+E+F+G+y   ",
"                ^.H+I+J+K+L+M+N+O+P+Q+R+S+T+b+U+V+W+X+Y+Z+3 .   ",
"            + /.`+ @.@+@@@#@$@%@&@*@=@s.P.-@;@>@,@'@)@!@~@-     ",
"            {@]@^@/@(@_@:@<@[@}@|@1@2@N.3@4@5@6@7@8@9@0@a@4     ",
"            + b@c@d@e@f@g@h@i@j@k@l@%@m@n@o@p@q@r@s@t@u@v@{     ",
"              e.9 4 5 w@x@x@t+y@z@A@B@C@D@E@F@G@H@I@J@K@-       ",
"                      & 4 L@M@N@O@P@Q@R@S@T@U@V@W@X@Y@w@4       ",
"                      !+% Z@`@ #.#+#@###$#%#&#y *#=#-#;#        ",
"                . !+>#,#'#)#!#~#{#]#^#%#&#{   - /#(#J+4         ",
"          . . % $ _#:#<#[#}#|#1#2#! * {     . 8 7 3#5           ",
"        M 4#@.5#6#7#8#9#0#x@w@a#4 !+        % 5#l k 4           ",
"      . b#c#d#e#f#g#h#i#n 4 &             . b#j#k#5             ",
"        % N l#m#k n#4 &                     L@o#;#.             ",
"          4 4 4 4                             .                 ",
"                                                                "};
