/* XPM */
static char * fire_ball_xpm[] = {
"32 32 11 1",
" 	c #70C8A0",
".	c #F86010",
"+	c #F89018",
"@	c #980000",
"#	c #F80000",
"$	c #F8F8F8",
"%	c #F8F8A0",
"&	c #F8C020",
"*	c #F8F828",
"=	c #F8F850",
"-	c #F83008",
"                                ",
"                                ",
"                                ",
"             .++++.             ",
"          ...@@@@@@...          ",
"        ##@   $$$$   @##        ",
"      ##    %$$$$$$%    @#      ",
"    ##    &%$$$$$$$$%&    ##    ",
"   #     &*%%$$$$$$%%*&     #   ",
"         *%=%%%$$%%%***         ",
"        +&&===%%%%===*&+        ",
"        &&*==========&+&        ",
"       +&.&==&&&&&==&..++       ",
"       ....=&.....&=+...&       ",
"      .+...&+..#-..&+.-.&-      ",
"      ..--..-.-##-.&..--.-      ",
"      .. -....#  #-...- ..      ",
"     ..  --..-    -..-   .#     ",
"     .-  --..#    --.#   -#     ",
"     #    #.-      --#    #     ",
"    .#    #-#      #-#    @#    ",
"    #      #@      @#      #    ",
"    #      #       @#      #    ",
"   #@      @        @      ##   ",
"   #       @        @       #   ",
"   @                        #   ",
"                            #   ",
"                                ",
"                                ",
"                                ",
"                                ",
"                                "};
