/* XPM */
static char * down1_xpm[] = {
"64 64 13 1",
" 	c #70C8A0",
".	c #6A2929",
"+	c #C53939",
"@	c #FF6A4A",
"#	c #000000",
"$	c #EEEEFF",
"%	c #AC7B41",
"&	c #B4B4D5",
"*	c #DE9473",
"=	c #39397B",
"-	c #7B4141",
";	c #FFC594",
">	c #73A4C5",
"                ................................                ",
"                ................................                ",
"                ................................                ",
"            ....++++@@@@@@@@@@@@@@@@@@@@@@@@++++....            ",
"            ....++++@@@@@@@@@@@@@@@@@@@@@@@@++++....            ",
"            ....++++@@@@@@@@@@@@@@@@@@@@@@@@++++....            ",
"            ....++++@@@@@@@@@@@@@@@@@@@@@@@@++++....            ",
"            ....@@@@@@@@@@@@@@@@@@@@@@@@@@@@@@@@....            ",
"            ....@@@@@@@@@@@@@@@@@@@@@@@@@@@@@@@@....            ",
"            ....@@@@@@@@@@@@@@@@@@@@@@@@@@@@@@@@....            ",
"        ....++++@@@@@@@@@@@@@@@@@@@@@@@@@@@@@@@@++++....        ",
"        ....++++@@@@@@@@@@@@@@@@@@@@@@@@@@@@@@@@++++....        ",
"        ....++++@@@@@@@@@@@@@@@@@@@@@@@@@@@@@@@@++++....        ",
"        ####++++++++@@@@@@@@@@@@@@@@@@@@@@@@++++++++####        ",
"        ####++++++++@@@@@@@@@@@@@@@@@@@@@@@@++++++++####        ",
"        ####++++++++@@@@@@@@@@@@@@@@@@@@@@@@++++++++####        ",
"        ####++++++++@@@@@@@@@@@@@@@@@@@@@@@@++++++++####        ",
"        ####++++++++++++++++$$$$$$$$++++++++++++++++####        ",
"        ####++++++++++++++++$$$$$$$$++++++++++++++++####        ",
"        ####++++++++++++++++$$$$$$$$++++++++++++++++####        ",
"    ####%%%%....&&&&++++&&&&++++++++&&&&++++&&&&....%%%%####    ",
"    ####%%%%....&&&&++++&&&&++++++++&&&&++++&&&&....%%%%####    ",
"    ####%%%%....&&&&++++&&&&++++++++&&&&++++&&&&....%%%%####    ",
"    ####%%%%....&&&&++++&&&&++++++++&&&&++++&&&&....%%%%####    ",
"    ####****####====$$$$$$$$$$$$$$$$$$$$$$$$====####****####    ",
"    ####****####====$$$$$$$$$$$$$$$$$$$$$$$$====####****####    ",
"    ####****####====$$$$$$$$$$$$$$$$$$$$$$$$====####****####    ",
"        ####----****========================****----####        ",
"        ####----****========================****----####        ",
"        ####----****========================****----####        ",
"        ####********;;;;####;;;;;;;;####;;;;********####        ",
"        ####********;;;;####;;;;;;;;####;;;;********####        ",
"        ####********;;;;####;;;;;;;;####;;;;********####        ",
"        ####********;;;;####;;;;;;;;####;;;;********####        ",
"            ----********----;;;;;;;;----********----            ",
"            ----********----;;;;;;;;----********----            ",
"            ----********----;;;;;;;;----********----            ",
"        ####====####----****************----####====####        ",
"        ####====####----****************----####====####        ",
"        ####====####----****************----####====####        ",
"    ----;;;;========++++################++++========;;;;----    ",
"    ----;;;;========++++################++++========;;;;----    ",
"    ----;;;;========++++################++++========;;;;----    ",
"    ----;;;;========++++################++++========;;;;----    ",
"    ----********====++++++++&&&&&&&&++++++++====********----    ",
"    ----********====++++++++&&&&&&&&++++++++====********----    ",
"    ----********====++++++++&&&&&&&&++++++++====********----    ",
"        ----########++++@@@@$$$$$$$$@@@@++++########----        ",
"        ----########++++@@@@$$$$$$$$@@@@++++########----        ",
"        ----########++++@@@@$$$$$$$$@@@@++++########----        ",
"        ----########++++@@@@$$$$$$$$@@@@++++########----        ",
"            ====>>>>====################====>>>>====            ",
"            ====>>>>====################====>>>>====            ",
"            ====>>>>====################====>>>>====            ",
"            ########>>>>>>>>########>>>>>>>>########            ",
"            ########>>>>>>>>########>>>>>>>>########            ",
"            ########>>>>>>>>########>>>>>>>>########            ",
"            ####========####        ####========####            ",
"            ####========####        ####========####            ",
"            ####========####        ####========####            ",
"            ####========####        ####========####            ",
"                ########                ########                ",
"                ########                ########                ",
"                ########                ########                "};
