/* XPM */
static char * left2_xpm[] = {
"64 64 14 1",
" 	c #70C8A0",
".	c #6A2929",
"+	c #C53939",
"@	c #FF6A4A",
"#	c #EEEEFF",
"$	c #000000",
"%	c #B4B4D5",
"&	c #7B4141",
"*	c #39397B",
"=	c #DE9473",
"-	c #FFC594",
";	c #BD9C39",
">	c #FFDE5A",
",	c #73A4C5",
"                ................................                ",
"                ................................                ",
"                ................................                ",
"            ....++++@@@@@@@@@@@@@@@@@@@@@@@@++++....            ",
"            ....++++@@@@@@@@@@@@@@@@@@@@@@@@++++....            ",
"            ....++++@@@@@@@@@@@@@@@@@@@@@@@@++++....            ",
"            ....++++@@@@@@@@@@@@@@@@@@@@@@@@++++....            ",
"        ....++++@@@@@@@@@@@@@@@@@@@@@@@@@@@@@@@@....            ",
"        ....++++@@@@@@@@@@@@@@@@@@@@@@@@@@@@@@@@....            ",
"        ....++++@@@@@@@@@@@@@@@@@@@@@@@@@@@@@@@@....            ",
"    ........####@@@@@@@@@@@@@@@@@@@@@@@@@@@@@@@@++++....        ",
"    ........####@@@@@@@@@@@@@@@@@@@@@@@@@@@@@@@@++++....        ",
"    ........####@@@@@@@@@@@@@@@@@@@@@@@@@@@@@@@@++++....        ",
"$$$$####....####++++@@@@@@@@@@@@@@@@@@@@@@@@++++++++....        ",
"$$$$####....####++++@@@@@@@@@@@@@@@@@@@@@@@@++++++++....        ",
"$$$$####....####++++@@@@@@@@@@@@@@@@@@@@@@@@++++++++....        ",
"$$$$####....####++++@@@@@@@@@@@@@@@@@@@@@@@@++++++++....        ",
"$$$$####++++%%%%++++++++++++++++++++++++++++++++++++....        ",
"$$$$####++++%%%%++++++++++++++++++++++++++++++++++++....        ",
"$$$$####++++%%%%++++++++++++++++++++++++++++++++++++....        ",
"$$$$####%%%%++++++++++++++++++++++++++++++++++++....$$$$        ",
"$$$$####%%%%++++++++++++++++++++++++++++++++++++....$$$$        ",
"$$$$####%%%%++++++++++++++++++++++++++++++++++++....$$$$        ",
"$$$$####%%%%++++++++++++++++++++++++++++++++++++....$$$$        ",
"    $$$$%%%%%%%%%%%%++++++++++++++++++++........&&&&$$$$        ",
"    $$$$%%%%%%%%%%%%++++++++++++++++++++........&&&&$$$$        ",
"    $$$$%%%%%%%%%%%%++++++++++++++++++++........&&&&$$$$        ",
"        &&&&****........................&&&&&&&&&&&&$$$$        ",
"        &&&&****........................&&&&&&&&&&&&$$$$        ",
"        &&&&****........................&&&&&&&&&&&&$$$$        ",
"        &&&&========$$$$========&&&&----====&&&&$$$$            ",
"        &&&&========$$$$========&&&&----====&&&&$$$$            ",
"        &&&&========$$$$========&&&&----====&&&&$$$$            ",
"        &&&&========$$$$========&&&&----====&&&&$$$$            ",
"            &&&&----&&&&----========----====$$$$                ",
"            &&&&----&&&&----========----====$$$$                ",
"            &&&&----&&&&----========----====$$$$                ",
"                &&&&================&&&&&&&&;;;;$$$$            ",
"                &&&&================&&&&&&&&;;;;$$$$            ",
"                &&&&================&&&&&&&&;;;;$$$$            ",
"                ....&&&&&&&&$$$$********;;;;>>>>>>>>$$$$        ",
"                ....&&&&&&&&$$$$********;;;;>>>>>>>>$$$$        ",
"                ....&&&&&&&&$$$$********;;;;>>>>>>>>$$$$        ",
"                ....&&&&&&&&$$$$********;;;;>>>>>>>>$$$$        ",
"                ....++++++++********--------&&&&&&&&$$$$        ",
"                ....++++++++********--------&&&&&&&&$$$$        ",
"                ....++++++++********--------&&&&&&&&$$$$        ",
"                $$$$$$$$++++$$$$****========&&&&;;;;$$$$        ",
"                $$$$$$$$++++$$$$****========&&&&;;;;$$$$        ",
"                $$$$$$$$++++$$$$****========&&&&;;;;$$$$        ",
"                $$$$$$$$++++$$$$****========&&&&;;;;$$$$        ",
"            $$$$****$$$$$$$$,,,,$$$$$$$$&&&&&&&&$$$$            ",
"            $$$$****$$$$$$$$,,,,$$$$$$$$&&&&&&&&$$$$            ",
"            $$$$****$$$$$$$$,,,,$$$$$$$$&&&&&&&&$$$$            ",
"            $$$$$$$$++++****$$$$$$$$$$$$$$$$$$$$                ",
"            $$$$$$$$++++****$$$$$$$$$$$$$$$$$$$$                ",
"            $$$$$$$$++++****$$$$$$$$$$$$$$$$$$$$                ",
"                $$$$$$$$$$$$                                    ",
"                $$$$$$$$$$$$                                    ",
"                $$$$$$$$$$$$                                    ",
"                $$$$$$$$$$$$                                    ",
"                                                                ",
"                                                                ",
"                                                                "};
