/* XPM */
static char * up2_xpm[] = {
"64 64 12 1",
" 	c #70C8A0",
".	c #6A2929",
"+	c #C53939",
"@	c #FF6A4A",
"#	c #000000",
"$	c #AC7B41",
"%	c #7B4141",
"&	c #DE9473",
"*	c #39397B",
"=	c #BD9C39",
"-	c #FFDE5A",
";	c #73A4C5",
"                ................................                ",
"                ................................                ",
"                ................................                ",
"            ....++++@@@@@@@@@@@@@@@@@@@@@@@@++++....            ",
"            ....++++@@@@@@@@@@@@@@@@@@@@@@@@++++....            ",
"            ....++++@@@@@@@@@@@@@@@@@@@@@@@@++++....            ",
"            ....++++@@@@@@@@@@@@@@@@@@@@@@@@++++....            ",
"            ....@@@@@@@@@@@@@@@@@@@@@@@@@@@@@@@@....            ",
"            ....@@@@@@@@@@@@@@@@@@@@@@@@@@@@@@@@....            ",
"            ....@@@@@@@@@@@@@@@@@@@@@@@@@@@@@@@@....            ",
"        ....++++@@@@@@@@@@@@@@@@@@@@@@@@@@@@@@@@++++....        ",
"        ....++++@@@@@@@@@@@@@@@@@@@@@@@@@@@@@@@@++++....        ",
"        ....++++@@@@@@@@@@@@@@@@@@@@@@@@@@@@@@@@++++....        ",
"        ....++++++++@@@@@@@@@@@@@@@@@@@@@@@@++++++++....        ",
"        ....++++++++@@@@@@@@@@@@@@@@@@@@@@@@++++++++....        ",
"        ....++++++++@@@@@@@@@@@@@@@@@@@@@@@@++++++++....        ",
"        ....++++++++@@@@@@@@@@@@@@@@@@@@@@@@++++++++....        ",
"        ####++++++++++++++++++++++++++++++++++++++++####        ",
"        ####++++++++++++++++++++++++++++++++++++++++####        ",
"        ####++++++++++++++++++++++++++++++++++++++++####        ",
"        ####....++++++++++++++++++++++++++++++++....####        ",
"        ####....++++++++++++++++++++++++++++++++....####        ",
"        ####....++++++++++++++++++++++++++++++++....####        ",
"        ####....++++++++++++++++++++++++++++++++....####        ",
"    ####$$$$%%%%....++++++++########++++++++....%%%%$$$$####    ",
"    ####$$$$%%%%....++++++++########++++++++....%%%%$$$$####    ",
"    ####$$$$%%%%....++++++++########++++++++....%%%%$$$$####    ",
"    ####&&&&####%%%%........................%%%%####&&&&####    ",
"    ####&&&&####%%%%........................%%%%####&&&&####    ",
"    ####&&&&####%%%%........................%%%%####&&&&####    ",
"    %%%%########%%%%%%%%$$$$%%%%%%%%$$$$%%%%%%%%########        ",
"    %%%%########%%%%%%%%$$$$%%%%%%%%$$$$%%%%%%%%########        ",
"    %%%%########%%%%%%%%$$$$%%%%%%%%$$$$%%%%%%%%########        ",
"    %%%%########%%%%%%%%$$$$%%%%%%%%$$$$%%%%%%%%########        ",
"    %%%%&&&&****########%%%%%%%%%%%%%%%%########%%%%            ",
"    %%%%&&&&****########%%%%%%%%%%%%%%%%########%%%%            ",
"    %%%%&&&&****########%%%%%%%%%%%%%%%%########%%%%            ",
"    %%%%********%%%%%%%%################%%%%****####            ",
"    %%%%********%%%%%%%%################%%%%****####            ",
"    %%%%********%%%%%%%%################%%%%****####            ",
"        ####****++++====++++++++++++++++====%%%%****####        ",
"        ####****++++====++++++++++++++++====%%%%****####        ",
"        ####****++++====++++++++++++++++====%%%%****####        ",
"        ####****++++====++++++++++++++++====%%%%****####        ",
"            %%%%++++%%%%----------------%%%%++++****&&&&####    ",
"            %%%%++++%%%%----------------%%%%++++****&&&&####    ",
"            %%%%++++%%%%----------------%%%%++++****&&&&####    ",
"            ####++++====----------------====++++&&&&&&&&####    ",
"            ####++++====----------------====++++&&&&&&&&####    ",
"            ####++++====----------------====++++&&&&&&&&####    ",
"            ####++++====----------------====++++&&&&&&&&####    ",
"            ####****========--------========****########        ",
"            ####****========--------========****########        ",
"            ####****========--------========****########        ",
"                ********====%%%%%%%%====########                ",
"                ********====%%%%%%%%====########                ",
"                ********====%%%%%%%%====########                ",
"                ####;;;;;;;;############                        ",
"                ####;;;;;;;;############                        ",
"                ####;;;;;;;;############                        ",
"                ####;;;;;;;;############                        ",
"                    ########                                    ",
"                    ########                                    ",
"                    ########                                    "};
