/* XPM */
static char * collectible_xpm[] = {
"64 64 7 1",
" 	c #70C8A0",
".	c #4A3131",
"+	c #FFDE4A",
"@	c #FFFFFF",
"#	c #D5AC20",
"$	c #000000",
"%	c #836200",
"                                                                ",
"                                                                ",
"                                                                ",
"                                                                ",
"                                                                ",
"                                                                ",
"                                                                ",
"                                                                ",
"                                                                ",
"                                                                ",
"                                                                ",
"                                                                ",
"                                                                ",
"                                                                ",
"                                                                ",
"                                                                ",
"                                                                ",
"                                                                ",
"                                                                ",
"                            ...           ...                   ",
"                          ..+++..       ..+++..                 ",
"                         .++@@+##.     .++@@+##.                ",
"                        .#+#@@++##$   .#+#@@++##$               ",
"                        .#@##+++##$   .#@##+++##$               ",
"                        .###+++##%$   .###+++##%$               ",
"                        .%######%$    .%######%$                ",
"                         $%###%$$      $%###%$$                 ",
"                          $$$$$         $$$$$                   ",
"               ...                                              ",
"             ..+++..                                            ",
"            .++@@+##.                                           ",
"           .#+#@@++##$                                          ",
"           .#@##+++##$        ...                               ",
"           .###+++##%$      ..+++..                             ",
"           .%######%$      .++@@+##.        ...                 ",
"            $%###%$$      .#+#@@++##$     ..+++..               ",
"             $$$$$        .#@##+++##$    .++@@+##.              ",
"                          .###+++##%$   .#+#@@++##$             ",
"                          .%######%$    .#@##+++##$             ",
"                           $%###%$$     .###+++##%$             ",
"                            $$$$$       .%######%$              ",
"                                         $%###%$$               ",
"                                          $$$$$                 ",
"                                                                ",
"                   ...            ...                           ",
"                 ..+++..        ..+++..                         ",
"                .++@@+##.      .++@@+##.                        ",
"               .#+#@@++##$    .#+#@@++##$                       ",
"               .#@##+++##$    .#@##+++##$                       ",
"               .###+++##%$    .###+++##%$                       ",
"               .%######%$     .%######%$                        ",
"                $%###%$$       $%###%$$                         ",
"                 $$$$$          $$$$$                           ",
"                                                                ",
"                                                                ",
"                                                                ",
"                                                                ",
"                                                                ",
"                                                                ",
"                                                                ",
"                                                                ",
"                                                                ",
"                                                                ",
"                                                                "};
