/* XPM */
static char * fire_ball_left_xpm[] = {
"32 32 333 2",
"  	c #70C8A0",
". 	c #72C7A0",
"+ 	c #82C19A",
"@ 	c #72C79F",
"# 	c #71C8A0",
"$ 	c #7FC29B",
"% 	c #80C29B",
"& 	c #8DBB96",
"* 	c #DB735B",
"= 	c #84C09A",
"- 	c #81C19A",
"; 	c #8CBC96",
"> 	c #E65C48",
", 	c #E95643",
"' 	c #E85845",
") 	c #E3644F",
"! 	c #7EC29B",
"~ 	c #91B994",
"{ 	c #81C19B",
"] 	c #E25B47",
"^ 	c #E85643",
"/ 	c #EB503E",
"( 	c #96B792",
"_ 	c #86BF99",
": 	c #85BF99",
"< 	c #73C79F",
"[ 	c #8FBB95",
"} 	c #E16852",
"| 	c #85C099",
"1 	c #71C7A0",
"2 	c #83C19A",
"3 	c #8EBD96",
"4 	c #E85C45",
"5 	c #EF4333",
"6 	c #E55442",
"7 	c #A9513F",
"8 	c #88B793",
"9 	c #84C099",
"0 	c #DC644F",
"a 	c #8FBA95",
"b 	c #72C8A0",
"c 	c #82C59A",
"d 	c #8FC295",
"e 	c #E96F46",
"f 	c #F05532",
"g 	c #F06B34",
"h 	c #F06933",
"i 	c #EB5D3F",
"j 	c #93B893",
"k 	c #76C09A",
"l 	c #70C79F",
"m 	c #86BA95",
"n 	c #996852",
"o 	c #76C099",
"p 	c #83C49A",
"q 	c #90C495",
"r 	c #E99E47",
"s 	c #F1B737",
"t 	c #F7AF21",
"u 	c #F76915",
"v 	c #EC7540",
"w 	c #93BC93",
"x 	c #E3644E",
"y 	c #84C89A",
"z 	c #91C995",
"A 	c #E9A347",
"B 	c #F1B736",
"C 	c #F7901C",
"D 	c #F86F12",
"E 	c #F86711",
"F 	c #F2502B",
"G 	c #9EB48E",
"H 	c #74C79F",
"I 	c #90BB94",
"J 	c #E25643",
"K 	c #85BF98",
"L 	c #90C795",
"M 	c #EACB49",
"N 	c #F2EE3A",
"O 	c #F7C624",
"P 	c #F89B1A",
"Q 	c #F86B12",
"R 	c #F85E10",
"S 	c #F83F0A",
"T 	c #F7390F",
"U 	c #EB5E40",
"V 	c #92BA94",
"W 	c #80C39B",
"X 	c #E47644",
"Y 	c #A55B44",
"Z 	c #85C095",
"` 	c #EACB57",
" .	c #F7F140",
"..	c #F8F72B",
"+.	c #F8F12C",
"@.	c #F8C426",
"#.	c #F87814",
"$.	c #F86611",
"%.	c #F86210",
"&.	c #F75C14",
"*.	c #F15230",
"=.	c #F04631",
"-.	c #F04232",
";.	c #EA5542",
">.	c #90BA94",
",.	c #80C19B",
"'.	c #75C19B",
").	c #73C29B",
"!.	c #70C7A0",
"~.	c #81C29A",
"{.	c #E87946",
"].	c #88BD95",
"^.	c #92D0A0",
"/.	c #F0F2A5",
"(.	c #F8F897",
"_.	c #F8F84F",
":.	c #F8F84D",
"<.	c #F8F14B",
"[.	c #F8C42B",
"}.	c #F89D21",
"|.	c #F89019",
"1.	c #F87012",
"2.	c #F86110",
"3.	c #F85D0F",
"4.	c #F8570E",
"5.	c #F83308",
"6.	c #F72E0E",
"7.	c #EB4030",
"8.	c #E44434",
"9.	c #9D5643",
"0.	c #906651",
"a.	c #74C19A",
"b.	c #91BC94",
"c.	c #E27645",
"d.	c #91C69A",
"e.	c #EAF2B2",
"f.	c #F7F8E9",
"g.	c #F8F8B2",
"h.	c #F8F898",
"i.	c #F8F85A",
"j.	c #F8F850",
"k.	c #F8F44D",
"l.	c #F8EA48",
"m.	c #F8BC25",
"n.	c #F8B01D",
"o.	c #F86911",
"p.	c #F85B0F",
"q.	c #F73D10",
"r.	c #F1492E",
"s.	c #EC3E2E",
"t.	c #AB3B2D",
"u.	c #9F503E",
"v.	c #7AB893",
"w.	c #74C099",
"x.	c #81C39B",
"y.	c #E57842",
"z.	c #A84B35",
"A.	c #96C9AC",
"B.	c #F1F5EE",
"C.	c #F8F8F7",
"D.	c #F8F8EE",
"E.	c #F8F8A6",
"F.	c #F8F863",
"G.	c #F8F851",
"H.	c #F8F04B",
"I.	c #F8C02A",
"J.	c #F87614",
"K.	c #F73E10",
"L.	c #F14E2F",
"M.	c #EA5D41",
"N.	c #83C099",
"O.	c #74C09A",
"P.	c #82C49A",
"Q.	c #EA8F36",
"R.	c #AC584D",
"S.	c #ECECEA",
"T.	c #F7F8F8",
"U.	c #F8F8F8",
"V.	c #F8F8F3",
"W.	c #F8F899",
"X.	c #F8F458",
"Y.	c #F8C52B",
"Z.	c #F85C0F",
"`.	c #F73A0F",
" +	c #EB5440",
".+	c #91BA94",
"++	c #EA9036",
"@+	c #AD594F",
"#+	c #F2EFEF",
"$+	c #F8F8A5",
"%+	c #F8C026",
"&+	c #F86A11",
"*+	c #F83708",
"=+	c #F13E2E",
"-+	c #AD5A50",
";+	c #F8F8ED",
">+	c #F8F8A4",
",+	c #F82703",
"'+	c #EA8D35",
")+	c #AC584E",
"!+	c #EAEBE9",
"~+	c #F7F8F7",
"{+	c #F8F8F2",
"]+	c #F8F8B0",
"^+	c #F8F457",
"/+	c #F86C12",
"(+	c #F85A0F",
"_+	c #EA5841",
":+	c #90BB95",
"<+	c #82C29A",
"[+	c #E27A47",
"}+	c #AA4E37",
"|+	c #93C9AA",
"1+	c #F1F5ED",
"2+	c #F8F8EC",
"3+	c #F8F861",
"4+	c #F8F44E",
"5+	c #F87714",
"6+	c #F86511",
"7+	c #F75B14",
"8+	c #F15131",
"9+	c #E95A43",
"0+	c #80C19A",
"a+	c #74C29B",
"b+	c #8EBD95",
"c+	c #E47746",
"d+	c #91C79B",
"e+	c #E9F1B0",
"f+	c #F7F8E7",
"g+	c #F8F8AF",
"h+	c #F8F859",
"i+	c #F8C22A",
"j+	c #F89119",
"k+	c #F84B0C",
"l+	c #F85D10",
"m+	c #F75B15",
"n+	c #F05231",
"o+	c #EA4332",
"p+	c #A55744",
"q+	c #82BB96",
"r+	c #84C199",
"s+	c #E87845",
"t+	c #86BB94",
"u+	c #90CFA0",
"v+	c #F1F1A1",
"w+	c #F8F896",
"x+	c #F8F867",
"y+	c #F8F44F",
"z+	c #F8F74D",
"A+	c #F8F34D",
"B+	c #F8E848",
"C+	c #F8B623",
"D+	c #F86811",
"E+	c #F86010",
"F+	c #F8560E",
"G+	c #F7320E",
"H+	c #EB3D2E",
"I+	c #9B5845",
"J+	c #906953",
"K+	c #83C29A",
"L+	c #E27747",
"M+	c #A75842",
"N+	c #87C195",
"O+	c #E9CA54",
"P+	c #F7F14B",
"Q+	c #F8F48A",
"R+	c #F8CE39",
"S+	c #F8EC2B",
"T+	c #F8BF25",
"U+	c #F87D1B",
"V+	c #F83A09",
"W+	c #F73810",
"X+	c #F1412D",
"Y+	c #84BF99",
"Z+	c #76BF99",
"`+	c #E45744",
" @	c #8FC796",
".@	c #E9CB4B",
"+@	c #F0EC4A",
"@@	c #F7C225",
"#@	c #F8BF20",
"$@	c #F87D14",
"%@	c #F73D11",
"&@	c #F14F30",
"*@	c #F14D31",
"=@	c #E95F44",
"-@	c #90BA95",
";@	c #83C09A",
">@	c #7FC89B",
",@	c #90C895",
"'@	c #EAA346",
")@	c #F0BD39",
"!@	c #F7B220",
"~@	c #F15331",
"{@	c #9CB58F",
"]@	c #72C89F",
"^@	c #80C59B",
"/@	c #91C394",
"(@	c #EA9B45",
"_@	c #F17533",
":@	c #F78419",
"<@	c #F76316",
"[@	c #E97945",
"}@	c #8EBE96",
"|@	c #81C29B",
"1@	c #81C49B",
"2@	c #92BC94",
"3@	c #EB7A42",
"4@	c #F06E34",
"5@	c #F06C34",
"6@	c #E86646",
"7@	c #8DBC96",
"8@	c #81C39A",
"9@	c #EB7641",
"0@	c #F06935",
"a@	c #EA5742",
"b@	c #E75E47",
"c@	c #8EBB95",
"d@	c #84C29A",
"e@	c #94B993",
"f@	c #EB7041",
"g@	c #E95943",
"h@	c #A25C48",
"i@	c #81BC96",
"j@	c #DA745C",
"k@	c #7DC39C",
"l@	c #94B792",
"m@	c #E54F3E",
"n@	c #E15643",
"o@	c #976B54",
"p@	c #73C39C",
"q@	c #7EC39C",
"r@	c #75C099",
"                                                                ",
"                                                                ",
"              . + @                         # $ % % $ @         ",
"            . & * =                   # % - ; > , ' ) =         ",
"            ! ) ~ @             # { + ; ] ^ , / ( _ : <         ",
"          . [ } |         1 + 2 3 4 5 6 7 8 : 9 @               ",
"          ! 0 a @     b c d e f g h i j k l                     ",
"        @ m n o   b p q r s t u v w + @                         ",
"        % x m @ y z A B C D E F G H                             ",
"      @ I J K L M N O P Q R S T U V + + % @                     ",
"      W X Y Z `  ...+.@.#.$.%.R &.*.=.-.;.>.,.'.).!.            ",
"      ~.{.].^./.(._.:.<.[.}.|.1.2.3.4.5.6.7.8.9.0.a.            ",
"    @ b.c.d.e.f.g.h.i.j.k.l.m.n.o.p.q.r.s.t.u.v.w.l             ",
"    x.y.z.A.B.C.D.E.F.G.H.I.J.E K.L.M.V N.o O.l                 ",
"    P.Q.R.S.T.U.V.g.W.X.Y.J.Z.`. +.++ @                         ",
"    p ++@+#+U.U.U.D.$+X.%+&+*+=+.+@                             ",
"    p ++-+#+U.U.C.;+>+X.%+o.,+=+>..                             ",
"    p '+)+!+~+U.{+]+(.^+%+/+(+`._+:+{ .                         ",
"    <+[+}+|+1+C.2+>+3+4+Y.5+6+p.7+8+9+[ 0+a+!.                  ",
"    # b+c+d+e+f+g+(.h+j.<.i+j+k+l+3.m+n+o+p+q+'.).              ",
"      r+s+t+u+v+w+x+y+z+A+B+C+D+E+3.3.F+G+H+J I+J+).            ",
"      K+L+M+N+O+P+Q+R+S+T+U+/+R (+V+W+X+;..+Y+Z+w.l             ",
"      b [ `+-  @.@+@@@#@$@%.3.%@&@*@=@-@2 .                     ",
"        ;@} a < >@,@'@)@!@&+2.~@{@| + .                         ",
"        . a ) $   ]@^@/@(@_@:@<@[@}@|@#                         ",
"          9 } [ .     ]@1@2@3@4@4@5@6@7@% #                     ",
"          . >.) $         @ 8@K+w 9@0@a@b@7@,.a+                ",
"            | } c@.             @ <+d@e@f@g@J h@i@a+            ",
"            @ a j@k@                  @ K+| l@m@n@o@p@          ",
"              @ q@#                         @ 9 Y+r@!.          ",
"                                                                ",
"                                                                "};
